<svg id="Capa_1" enable-background="new 0 0 512 512" height="512" viewBox="0 0 512 512" width="512" xmlns="http://www.w3.org/2000/svg"><g><path d="m336 431h-160c-5.523 0-10-4.477-10-10v-154.795l-16.907 23.67c-11.263 15.767-29.447 25.125-48.824 25.125h-65.269c-19.33 0-35-15.67-35-35 0-19.33 15.67-35 35-35h45.908l50.049-68.817c18.754-25.787 48.987-41.183 80.873-41.183h88.34c31.886 0 62.119 15.396 80.874 41.183l50.048 68.817h45.908c19.33 0 35 15.67 35 35 0 19.33-15.67 35-35 35h-65.269c-19.377 0-37.561-9.358-48.824-25.126l-16.907-23.669v154.795c0 5.523-4.477 10-10 10z" fill="#ffcdbe"/><path d="m477 245h-45.908l-50.049-68.817c-18.754-25.787-48.987-41.183-80.873-41.183h-44.17v296h80c5.523 0 10-4.477 10-10v-154.795l16.907 23.669c11.263 15.768 29.447 25.126 48.824 25.126h65.269c19.33 0 35-15.67 35-35 0-19.33-15.67-35-35-35z" fill="#ffbeaa"/><path d="m151 468.922c0-19.803 13.417-36.988 32.629-41.791l172.054-43.013c18.892-4.723 38.345-7.118 57.817-7.118 37.22 0 67.5 30.28 67.5 67.5s-30.28 67.5-67.5 67.5h-219.422c-23.753 0-43.078-19.325-43.078-43.078z" fill="#989dec"/><path d="m317.922 512h-219.422c-37.22 0-67.5-30.28-67.5-67.5s30.28-67.5 67.5-67.5c19.472 0 38.925 2.395 57.817 7.118l172.054 43.013c19.212 4.803 32.629 21.988 32.629 41.791 0 23.753-19.325 43.078-43.078 43.078z" fill="#bceaf9"/><path d="m328.371 427.131-72.371-18.092v102.961h61.922c23.753 0 43.078-19.325 43.078-43.078 0-19.803-13.417-36.988-32.629-41.791z" fill="#acceff"/><path d="m256 160c-44.112 0-80-35.888-80-80s35.888-80 80-80 80 35.888 80 80-35.888 80-80 80z" fill="#ffdecf"/><path d="m336 80c0-44.112-35.888-80-80-80v160c44.112 0 80-35.888 80-80z" fill="#ffcdbe"/></g></svg>